<svg width="360" height="340" viewBox="0 0 360 340" fill="none" xmlns="http://www.w3.org/2000/svg">
<path d="M360 176.842C358.897 137.5 329.338 104.496 289.853 98.813C288.088 43.0779 241.324 -1.07299 184.853 0.0198576C139.853 -0.635849 99.4853 27.1224 84.4853 69.0876C36.8382 75.2075 1.10294 114.987 0 162.416C1.32353 216.403 46.7647 259.024 101.25 257.712H110.074H274.191H278.603C323.603 257.057 359.559 221.211 360 176.842Z" fill="url(#paint0_linear)"/>
<path d="M75.3794 258.489H275.16V331.113H75.3794V258.489Z" fill="#0078D4"/>
<path d="M84 258H267V323H84V258Z" fill="#50E6FF"/>
<path d="M84 207H267V258H84V207Z" fill="#0078D4"/>
<path fill-rule="evenodd" clip-rule="evenodd" d="M261.316 150.146V122.212H247.214L240.156 129.199L233.098 122.212H218.23C208.874 122.212 199.902 125.891 193.286 132.44C186.671 138.989 182.954 147.871 182.954 157.133C182.954 158.986 183.698 160.763 185.021 162.074C186.345 163.384 188.14 164.12 190.012 164.12C191.884 164.12 193.679 163.384 195.003 162.074C196.327 160.763 197.07 158.986 197.07 157.133C197.07 155.282 197.812 153.507 199.133 152.197C200.453 150.888 202.245 150.15 204.114 150.146H218.23V175.486L211.172 182.473V194H138.667V184.642C145.197 182.378 150.854 178.162 154.857 172.576C158.859 166.99 161.009 160.311 161.009 153.462C161.009 146.614 158.859 139.935 154.857 134.349C150.854 128.763 145.197 124.546 138.667 122.283L138.624 122.212V153.462H117.05V122.283C110.527 124.553 104.877 128.772 100.88 134.357C96.8836 139.942 94.737 146.618 94.737 153.462C94.737 160.307 96.8836 166.983 100.88 172.568C104.877 178.153 110.527 182.372 117.05 184.642V194H92.9364C78.0598 194 66 206.003 66 220.808V313.192C66 327.998 78.0599 340 92.9364 340H257.064C271.94 340 284 327.997 284 313.192V220.808C284 206.002 271.94 194 257.064 194H233.098V182.473L226.04 175.486V150.146H233.098L240.156 143.173L247.2 150.146H261.316ZM211.172 211.872V233.456H233.098V211.872H257.064C262.022 211.872 266.042 215.873 266.042 220.808V313.192C266.042 318.127 262.022 322.128 257.064 322.128H92.9364C87.9776 322.128 83.9576 318.127 83.9576 313.192V220.808C83.9576 215.873 87.9776 211.872 92.9364 211.872H117.05V233.456H138.667V211.872H211.172Z" fill="#50E6FF"/>
<path d="M116.842 253.254H139.26V273.189C139.26 279.38 134.241 284.398 128.051 284.398C121.86 284.398 116.842 279.38 116.842 273.189V253.254Z" fill="#0078D4"/>
<path d="M210.996 253.254H233.413V273.189C233.413 279.379 228.395 284.398 222.205 284.398C216.014 284.398 210.996 279.379 210.996 273.189V253.254Z" fill="#0078D4"/>
<defs>
<linearGradient id="paint0_linear" x1="180.076" y1="-40.4777" x2="180.076" y2="257.742" gradientUnits="userSpaceOnUse">
<stop offset="0.18" stop-color="#97C5FC"/>
<stop offset="0.665256" stop-color="#0078D4"/>
<stop offset="0.982984" stop-color="#0461B7"/>
</linearGradient>
</defs>
</svg>
