<svg width="72" height="72" viewBox="0 0 72 72" fill="none" xmlns="http://www.w3.org/2000/svg">
<path fill-rule="evenodd" clip-rule="evenodd" d="M20.0251 49.4265C11.1509 49.2873 4 42.0502 4 33.1429C4 24.5959 10.584 17.5868 18.9568 16.9106C21.4473 9.4099 28.5204 4 36.8571 4C46.8244 4 54.9856 11.7331 55.6681 21.5269C62.6137 22.3515 68 28.261 68 35.4286C68 43.0029 61.9849 49.1724 54.471 49.4208V49.4286H20.0251V49.4265Z" fill="url(#paint0_linear_909_66565)"/>
<path fill-rule="evenodd" clip-rule="evenodd" d="M36 67.9139V47.5652C36 46.4193 35.3574 45.3702 34.3367 44.8496L18.7563 36.9022C18.4544 37.3805 18.2857 37.9423 18.2857 38.5294V57.3845C18.2857 58.5304 18.9283 59.5795 19.9491 60.1002L34.6287 67.5881C35.06 67.8053 35.53 67.9139 36 67.9139Z" fill="url(#paint1_linear_909_66565)"/>
<path fill-rule="evenodd" clip-rule="evenodd" d="M37.3852 28.3329C36.5151 27.889 35.4849 27.889 34.6148 28.3329L19.9491 35.8137C19.4513 36.0676 19.0435 36.4471 18.7563 36.9022L34.3367 44.8495C35.3574 45.3702 36 46.4193 36 47.5652L36 67.9138C36.4742 67.9138 36.9484 67.8033 37.3828 67.5822C37.3836 67.5818 37.3844 67.5814 37.3852 67.581L52.051 60.1002C53.0717 59.5795 53.7143 58.5304 53.7143 57.3845L53.7143 38.5294C53.7143 37.3835 53.0717 36.3344 52.0509 35.8137L37.3852 28.3329Z" fill="url(#paint2_linear_909_66565)"/>
<defs>
<linearGradient id="paint0_linear_909_66565" x1="36" y1="4" x2="36" y2="49.4286" gradientUnits="userSpaceOnUse">
<stop stop-color="#0090FF"/>
<stop offset="1" stop-color="#0078D4"/>
</linearGradient>
<linearGradient id="paint1_linear_909_66565" x1="27.1429" y1="38.5344" x2="27.1429" y2="67.9139" gradientUnits="userSpaceOnUse">
<stop stop-color="#00C6F5"/>
<stop offset="1" stop-color="#00A4E8"/>
</linearGradient>
<linearGradient id="paint2_linear_909_66565" x1="36.2353" y1="31.0703" x2="36.2353" y2="67.9139" gradientUnits="userSpaceOnUse">
<stop stop-color="#50E6FF"/>
<stop offset="1" stop-color="#00C6F5"/>
</linearGradient>
</defs>
</svg>
